<?xml version="1.0" standalone="no"?>
<!DOCTYPE svg PUBLIC "-//W3C//DTD SVG 20010904//EN"
 "http://www.w3.org/TR/2001/REC-SVG-20010904/DTD/svg10.dtd">
<svg version="1.0" xmlns="http://www.w3.org/2000/svg"
 width="80.000000pt" height="91.000000pt" viewBox="0 0 80.000000 91.000000"
 preserveAspectRatio="xMidYMid meet">

<g transform="translate(0.000000,91.000000) scale(0.100000,-0.100000)"
fill="#000000" stroke="none">
<path d="M196 862 c-2 -4 -7 -24 -11 -45 -4 -20 -17 -49 -29 -64 -20 -26 -18
-26 27 6 26 19 47 40 47 48 0 7 9 13 21 13 11 0 37 11 57 25 l37 25 -72 0
c-40 0 -74 -3 -77 -8z"/>
<path d="M68 703 c-14 -4 -33 -31 -26 -39 2 -1 17 9 33 22 29 23 28 26 -7 17z"/>
<path d="M380 530 c0 -27 -3 -30 -30 -30 -25 0 -30 -4 -30 -25 0 -21 5 -25 30
-25 27 0 30 -3 30 -30 0 -23 4 -30 20 -30 16 0 20 7 20 30 0 27 3 30 30 30 25
0 30 4 30 25 0 21 -5 25 -30 25 -27 0 -30 3 -30 30 0 23 -4 30 -20 30 -16 0
-20 -7 -20 -30z"/>
</g>
</svg>
